<svg xmlns="http://www.w3.org/2000/svg" width="48" height="48" viewBox="0 0 48 48" fill="none">
  <style>
    .a {
      fill: #03010F;
    }

    .b {
      fill: #ffffff;
    }
  </style>
  <path
    d="M48 0V48H0V0H48ZM14.6165 35.7091C18.8411 39.9411 25.6889 39.9411 29.9134 35.7091C34.1381 31.4772 34.1381 24.6172 29.9134 20.3851L14.6165 35.7091ZM33.3835 12.2911C29.1589 8.05903 22.3111 8.05903 18.0865 12.2911C13.862 16.5231 13.862 23.383 18.0865 27.615L33.3835 12.2911Z"
    class="a" />
  <path
    d="M33.3835 12.2911C29.1589 8.05903 22.3111 8.05903 18.0865 12.2911C13.862 16.5231 13.862 23.383 18.0865 27.615L33.3835 12.2911Z"
    class="b" />
  <path
    d="M14.6165 35.7091C18.8411 39.9411 25.6889 39.9411 29.9134 35.7091C34.1381 31.4772 34.1381 24.6172 29.9134 20.3851L14.6165 35.7091Z"
    class="b" />
</svg>
